#!OML:ASF F:\VICON\USERDATA\INSTALL\rory3\rory3.ASF
:FULLY-SPECIFIED
:DEGREES
72
root 4.46878 17.6764 1.52862 21.0669 1.87647 -4.37543
lowerback -7.84124 -0.442353 4.93789
upperback -13.0608 -0.344911 4.90141
thorax -9.57256 -0.346617 2.50918
lowerneck -3.64656 19.2444 13.769
upperneck 10.4475 24.6081 1.94059
head 5.12462 12.6808 0.293204
rclavicle -1.47101e-014 1.90833e-014
rhumerus -9.75149 -24.1416 21.5081
rradius 124.12
rwrist -58.7643
rhand -4.73449 -47.8511
rfingers 7.12502
rthumb 21.0485 -76.7288
lclavicle -1.47101e-014 1.90833e-014
lhumerus 32.1733 31.8869 -11.0601
lradius 31.5413
lwrist 47.4074
lhand -29.3504 -15.7399
lfingers 7.12502
lthumb -2.69013 14.2229
rfemur -9.12525 6.32728 -2.21833
rtibia 6.97348
rfoot -15.4951 -29.8195
rtoes 42.0008
lfemur -21.1254 -1.45793 -24.8736
ltibia 15.07
lfoot -13.4136 7.83928
ltoes 8.70135
73
root 4.46309 17.6764 1.51599 21.0883 1.88894 -4.19914
lowerback -7.7475 -0.480386 4.73182
upperback -13.1681 -0.3804 4.86135
thorax -9.74608 -0.34844 2.58752
lowerneck -2.76604 19.261 13.7493
upperneck 10.0035 24.781 1.9039
head 4.85717 12.7583 0.181439
rclavicle 1.33186e-014 -1.74931e-014
rhumerus -9.51815 -23.9937 21.3316
rradius 124.084
rwrist -58.8156
rhand -5.26523 -47.9018
rfingers 7.12502
rthumb 20.5386 -76.8354
lclavicle 1.33186e-014 -1.74931e-014
lhumerus 31.7435 31.1011 -11.6232
lradius 31.8583
lwrist 47.8904
lhand -29.971 -15.7107
lfingers 7.12502
lthumb -3.28941 14.2437
rfemur -9.57684 6.25039 -2.37462
rtibia 7.74248
rfoot -17.9581 -28.279
rtoes 44.4094
lfemur -21.09 -1.56337 -25.0198
ltibia 14.8867
lfoot -13.2929 7.85105
ltoes 8.667
74
root 4.462 17.6754 1.50921 21.0646 1.87448 -4.11734
lowerback -7.60117 -0.497161 4.64666
upperback -13.1865 -0.390318 4.83915
thorax -9.85015 -0.347177 2.61486
lowerneck -2.61273 19.2712 13.6983
upperneck 10.0618 24.8194 1.9399
head 4.84348 12.7808 0.186851
rclavicle -1.0138e-014 1.35174e-014
rhumerus -9.37834 -23.9863 21.1981
rradius 124.058
rwrist -58.8825
rhand -5.74818 -47.9718
rfingers 7.12502
rthumb 20.0744 -76.9547
lclavicle -1.0138e-014 1.35174e-014
lhumerus 31.3424 30.5635 -12.0754
lradius 32.1417
lwrist 48.2511
lhand -30.8899 -16.0586
lfingers 7.12502
lthumb -4.17679 13.8802
rfemur -9.93544 6.24275 -2.46838
rtibia 8.42332
rfoot -19.6043 -27.0134
rtoes 46.0508
lfemur -20.9925 -1.56251 -25.1178
ltibia 14.7182
lfoot -13.2014 7.82974
ltoes 8.44633
75
root 4.45843 17.6727 1.50506 20.999 1.8174 -3.98576
lowerback -7.54592 -0.508719 4.46809
upperback -13.1314 -0.405321 4.80598
thorax -9.81297 -0.339296 2.67637
lowerneck -2.6775 19.2185 13.7147
upperneck 10.2381 24.745 1.86859
head 4.91759 12.7467 0.178281
rclavicle -7.95139e-016 -1.43125e-014
rhumerus -9.34369 -23.9974 21.1077
rradius 124.081
rwrist -58.8672
rhand -5.89173 -48.1484
rfingers 7.12502
rthumb 19.9364 -77.1457
lclavicle -7.95139e-016 -1.43125e-014
lhumerus 31.1535 30.3009 -12.2444
lradius 32.3244
lwrist 48.435
lhand -31.1428 -16.1155
lfingers 7.12502
lthumb -4.42106 13.8183
rfemur -10.0606 6.27417 -2.60985
rtibia 8.7641
rfoot -20.4145 -26.2898
rtoes 46.9099
lfemur -20.9235 -1.53629 -25.272
ltibia 14.7091
lfoot -13.1716 7.81316
ltoes 8.44398
76
root 4.45419 17.6721 1.50445 20.9685 1.7556 -3.98821
lowerback -7.66338 -0.490709 4.42167
upperback -13.0738 -0.393565 4.80631
thorax -9.67648 -0.328378 2.69686
lowerneck -2.67969 19.1489 13.7386
upperneck 10.4334 24.6511 1.85102
head 4.98131 12.707 0.175679
rclavicle 2.5842e-014 -1.59028e-014
rhumerus -9.34523 -23.8475 21.0466
rradius 124.132
rwrist -58.56
rhand -5.9476 -48.0135
rfingers 7.12502
rthumb 19.8827 -77.0164
lclavicle 2.5842e-014 -1.59028e-014
lhumerus 31.1636 30.2286 -12.148
lradius 32.4119
lwrist 48.3444
lhand -30.8073 -15.5384
lfingers 7.12502
lthumb -4.09708 14.4019
rfemur -10.1461 6.34424 -2.60655
rtibia 8.89246
rfoot -20.7124 -26.0884
rtoes 47.1669
lfemur -20.9604 -1.45834 -25.2766
ltibia 14.8043
lfoot -13.1893 7.78834
ltoes 8.7217
77
root 4.45227 17.6742 1.50186 20.9822 1.7628 -4.20407
lowerback -7.874 -0.451083 4.63887
upperback -12.9937 -0.361716 4.86476
thorax -9.46743 -0.328338 2.63109
lowerneck -2.95173 19.1053 13.6416
upperneck 10.8409 24.5407 1.98061
head 5.121 12.6665 0.262057
rclavicle -9.93923e-015 -7.95139e-015
rhumerus -9.3398 -23.6859 20.989
rradius 124.159
rwrist -58.2983
rhand -6.22354 -47.6907
rfingers 7.12502
rthumb 19.6175 -76.7209
lclavicle -9.93923e-015 -7.95139e-015
lhumerus 31.1989 30.248 -11.9873
lradius 32.4357
lwrist 48.1538
lhand -30.8903 -15.4524
lfingers 7.12502
lthumb -4.17722 14.4864
rfemur -10.3011 6.40978 -2.3648
rtibia 9.00462
rfoot -18.5021 -27.6583
rtoes 45.0538
lfemur -21.0744 -1.38092 -25.039
ltibia 14.9134
lfoot -13.1884 7.77536
ltoes 8.96075
